<svg xmlns="http://www.w3.org/2000/svg" width="120" height="120" viewBox="0 0 120 120">
  <g fill="none" stroke="#B58B35" stroke-width="1.3" stroke-linecap="round" opacity="0.40">
    <path d="M112 8v104H8M105 16v89H16"/>
    <path d="M98 99C72 99 74 78 90 78c13 0 13 17 2 17M99 98c0-26-21-24-21-8 0 13 17 13 17 2"/>
    <path d="M85 104C64 96 56 84 49 67M104 85C96 64 84 56 67 49"/>
    <path d="M76 98c-15 4-23-3-21-14 13-1 22 5 21 14M98 76c4-15-3-23-14-21-1 13 5 22 14 21"/>
    <path d="M60 81c-14 1-21-7-16-15 11 1 18 8 16 15M81 60c1-14-7-21-15-16 1 11 8 18 15 16"/>
    <path d="M46 63c-12-1-18-8-13-15 10 2 15 8 13 15M63 46c-1-12-8-18-15-13 2 10 8 15 15 13"/>
    <path d="M35 107h16M107 35v16M101 101l-7 7-7-7 7-7z"/>
  </g>
</svg>
